<svg id="Layer_1" data-name="Layer 1" xmlns="http://www.w3.org/2000/svg" viewBox="0 0 432 864"><defs><style>.cls-1,.cls-2{fill:none;stroke:#111;stroke-miterlimit:10;}.cls-1{stroke-width:5px;}.cls-2{stroke-width:3px;}.cls-3{font-size:12px;fill:#111;font-family:Seravek-Bold, Seravek;}.cls-4{font-weight:700;}.cls-5{letter-spacing:0em;}.cls-6{letter-spacing:0.01em;}.cls-7{font-family:MyriadPro-Regular, Myriad Pro;}.cls-8{letter-spacing:-0.01em;}.cls-9{letter-spacing:-0.01em;}.cls-10{letter-spacing:0.02em;}.cls-11{letter-spacing:0em;}.cls-12{letter-spacing:-0.01em;}.cls-13{letter-spacing:-0.04em;}.cls-14{letter-spacing:-0.01em;}.cls-15{font-family:Seravek, Seravek;}.cls-16{letter-spacing:0em;}.cls-17{letter-spacing:-0.01em;}.cls-18{letter-spacing:-0.02em;}.cls-19{letter-spacing:0em;}.cls-20{letter-spacing:-0.01em;}.cls-21{letter-spacing:0em;}.cls-22{letter-spacing:0em;}.cls-23{letter-spacing:-0.01em;}.cls-24{letter-spacing:0.01em;}.cls-25{letter-spacing:0.02em;}.cls-26{letter-spacing:0em;}.cls-27{letter-spacing:-0.02em;}</style></defs><title>Artboard 1</title><line class="cls-1" x1="215.79" y1="42.16" x2="215.79" y2="827.24"/><line class="cls-2" x1="216.12" y1="81.65" x2="252.12" y2="81.65"/><line class="cls-2" x1="216.12" y1="255.52" x2="252.12" y2="255.52"/><line class="cls-2" x1="179.47" y1="346.83" x2="215.47" y2="346.83"/><line class="cls-2" x1="216.12" y1="449.36" x2="252.12" y2="449.36"/><line class="cls-2" x1="179.47" y1="571.22" x2="215.47" y2="571.22"/><line class="cls-2" x1="216.12" y1="692.37" x2="252.12" y2="692.37"/><line class="cls-2" x1="179.47" y1="795.6" x2="215.47" y2="795.6"/><line class="cls-2" x1="180.12" y1="159.5" x2="216.12" y2="159.5"/><text class="cls-3" transform="translate(264.11 694.85)"><tspan class="cls-4">aug - d<tspan class="cls-5" x="36.36" y="0">e</tspan><tspan x="42.59" y="0">c 20</tspan><tspan class="cls-6" x="64.21" y="0">1</tspan><tspan x="69.06" y="0">7</tspan></tspan><tspan class="cls-7"><tspan x="0" y="14.4">studied </tspan><tspan class="cls-8" x="40.23" y="14.4">w</tspan><tspan x="48.95" y="14.4">eb desi</tspan><tspan class="cls-9" x="84.67" y="14.4">g</tspan><tspan x="91.3" y="14.4">n and </tspan><tspan x="0" y="28.8">ca</tspan><tspan class="cls-10" x="11.16" y="28.8">r</tspan><tspan class="cls-9" x="15.37" y="28.8">t</tspan><tspan x="19.27" y="28.8">o</tspan><tspan class="cls-9" x="25.86" y="28.8">g</tspan><tspan class="cls-11" x="32.5" y="28.8">r</tspan><tspan x="36.36" y="28.8">ap</tspan><tspan class="cls-12" x="48.97" y="28.8">h</tspan><tspan class="cls-13" x="55.48" y="28.8">y</tspan><tspan x="60.66" y="28.8">,</tspan><tspan x="0" y="43.2">de</tspan><tspan class="cls-8" x="12.78" y="43.2">v</tspan><tspan x="18.43" y="43.2">eloped the fi</tspan><tspan class="cls-14" x="81.48" y="43.2">g</tspan><tspan x="88.01" y="43.2">, </tspan><tspan x="0" y="57.6">and dei</tspan><tspan class="cls-9" x="37.34" y="57.6">g</tspan><tspan x="43.98" y="57.6">ned </tspan><tspan class="cls-12" x="65.96" y="57.6">f</tspan><tspan x="69.31" y="57.6">or hopr</tspan></tspan></text><text class="cls-3" transform="translate(264.11 452.45)"><tspan class="cls-4">aug - d<tspan class="cls-5" x="36.36" y="0">e</tspan><tspan x="42.59" y="0">c 2016</tspan></tspan><tspan class="cls-15"><tspan x="0" y="14.4">t</tspan><tspan class="cls-9" x="4.67" y="14.4">r</tspan><tspan x="8.93" y="14.4">ans</tspan><tspan class="cls-14" x="26.6" y="14.4">f</tspan><tspan x="30.69" y="14.4">e</tspan><tspan class="cls-16" x="36.5" y="14.4">r</tspan><tspan x="40.8" y="14.4">ed </tspan><tspan class="cls-11" x="55.71" y="14.4">t</tspan><tspan x="60.32" y="14.4">o the uni</tspan><tspan class="cls-11" x="105.22" y="14.4">v</tspan><tspan x="110.8" y="14.4">ersity </tspan><tspan class="cls-17" x="141.61" y="14.4">o</tspan><tspan x="148.08" y="14.4">f </tspan><tspan x="0" y="28.8">cali</tspan><tspan class="cls-14" x="17.55" y="28.8">f</tspan><tspan x="21.65" y="28.8">ornia, ber</tspan><tspan class="cls-18" x="70.4" y="28.8">k</tspan><tspan class="cls-19" x="76.02" y="28.8">e</tspan><tspan class="cls-11" x="81.82" y="28.8">l</tspan><tspan x="85.08" y="28.8">ey</tspan><tspan x="0" y="43.2">be</tspan><tspan class="cls-11" x="12.3" y="43.2">g</tspan><tspan x="18.4" y="43.2">an </tspan><tspan class="cls-20" x="33.64" y="43.2">s</tspan><tspan class="cls-21" x="38.59" y="43.2">t</tspan><tspan x="43.24" y="43.2">udying </tspan><tspan class="cls-11" x="80.09" y="43.2">g</tspan><tspan class="cls-19" x="86.18" y="43.2">eog</tspan><tspan class="cls-9" x="104.7" y="43.2">r</tspan><tspan x="108.96" y="43.2">ap</tspan><tspan class="cls-22" x="121.5" y="43.2">h</tspan><tspan x="128.12" y="43.2">y</tspan></tspan></text><text class="cls-3" transform="translate(264.11 258.29)"><tspan class="cls-4">aug - d<tspan class="cls-5" x="36.36" y="0">e</tspan><tspan x="42.59" y="0">c 2015</tspan></tspan><tspan class="cls-15"><tspan class="cls-11" x="0" y="14.4">l</tspan><tspan x="3.25" y="14.4">earned </tspan><tspan class="cls-20" x="40.97" y="14.4">t</tspan><tspan x="45.57" y="14.4">o ma</tspan><tspan class="cls-18" x="71.05" y="14.4">k</tspan><tspan x="76.67" y="14.4">e sushi,</tspan><tspan x="0" y="28.8">skiied </tspan><tspan class="cls-14" x="31.57" y="28.8">f</tspan><tspan x="35.66" y="28.8">or ucs</tspan><tspan class="cls-8" x="66.03" y="28.8">b</tspan><tspan x="72.41" y="28.8">,</tspan><tspan x="0" y="43.2">helped </tspan><tspan class="cls-14" x="37.21" y="43.2">f</tspan><tspan x="41.3" y="43.2">ound the sb</tspan><tspan class="cls-22" x="101.36" y="43.2">c</tspan><tspan x="106.69" y="43.2">c beach </tspan><tspan class="cls-11" x="0" y="57.6">v</tspan><tspan x="5.58" y="57.6">ol</tspan><tspan class="cls-20" x="15.44" y="57.6">l</tspan><tspan x="18.69" y="57.6">eyball c</tspan><tspan class="cls-21" x="57.08" y="57.6">l</tspan><tspan x="60.37" y="57.6">ub</tspan></tspan></text><text class="cls-3" transform="translate(264.11 84.19)"><tspan class="cls-4">aug - d<tspan class="cls-5" x="36.36" y="0">e</tspan><tspan x="42.59" y="0">c 2014</tspan></tspan><tspan class="cls-15"><tspan x="0" y="14.4">be</tspan><tspan class="cls-11" x="12.3" y="14.4">g</tspan><tspan x="18.4" y="14.4">an </tspan><tspan class="cls-20" x="33.64" y="14.4">s</tspan><tspan class="cls-21" x="38.59" y="14.4">t</tspan><tspan x="43.24" y="14.4">udies at </tspan><tspan class="cls-22" x="85.85" y="14.4">s</tspan><tspan x="90.84" y="14.4">a</tspan><tspan class="cls-23" x="96.85" y="14.4">n</tspan><tspan x="103.4" y="14.4">ta </tspan><tspan x="0" y="28.8">barba</tspan><tspan class="cls-9" x="29.34" y="28.8">r</tspan><tspan x="33.6" y="28.8">a </tspan><tspan class="cls-21" x="42.19" y="28.8">c</tspan><tspan x="47.52" y="28.8">ommunity </tspan><tspan class="cls-22" x="103.57" y="28.8">c</tspan><tspan x="108.9" y="28.8">ol</tspan><tspan class="cls-11" x="118.76" y="28.8">l</tspan><tspan x="122.01" y="28.8">e</tspan><tspan class="cls-11" x="127.82" y="28.8">g</tspan><tspan x="133.92" y="28.8">e,</tspan></tspan><tspan class="cls-7"><tspan x="0" y="43.2">studied </tspan><tspan class="cls-9" x="40.23" y="43.2">g</tspan><tspan class="cls-11" x="46.87" y="43.2">r</tspan><tspan x="50.73" y="43.2">aphic desi</tspan><tspan class="cls-9" x="101.07" y="43.2">g</tspan><tspan x="107.71" y="43.2">n</tspan></tspan></text><text class="cls-3" transform="translate(90.91 162.49)"><tspan class="cls-4">jan - may 2015</tspan><tspan class="cls-15"><tspan class="cls-11" x="-19.66" y="14.4">s</tspan><tspan class="cls-22" x="-14.7" y="14.4">t</tspan><tspan x="-10.06" y="14.4">udied mar</tspan><tspan class="cls-18" x="41.48" y="14.4">k</tspan><tspan x="47.1" y="14.4">etin</tspan><tspan class="cls-24" x="67.1" y="14.4">g</tspan><tspan x="73.44" y="14.4">,</tspan><tspan x="-25.79" y="28.8">be</tspan><tspan class="cls-11" x="-13.49" y="28.8">g</tspan><tspan x="-7.39" y="28.8">an </tspan><tspan class="cls-16" x="7.85" y="28.8">r</tspan><tspan x="12.14" y="28.8">ock climbing</tspan></tspan></text><text class="cls-3" transform="translate(93.52 349.99)"><tspan class="cls-4">jan - july 2016</tspan><tspan class="cls-15"><tspan x="1.58" y="14.4">be</tspan><tspan class="cls-11" x="13.88" y="14.4">g</tspan><tspan x="19.98" y="14.4">an surfin</tspan><tspan class="cls-24" x="64.5" y="14.4">g</tspan><tspan x="70.83" y="14.4">,</tspan><tspan class="cls-22" x="-49.51" y="28.8">t</tspan><tspan x="-44.87" y="28.8">u</tspan><tspan class="cls-11" x="-38.33" y="28.8">t</tspan><tspan x="-33.72" y="28.8">o</tspan><tspan class="cls-16" x="-27.17" y="28.8">r</tspan><tspan x="-22.87" y="28.8">ed public spaekin</tspan><tspan class="cls-25" x="64.5" y="28.8">g</tspan><tspan x="70.84" y="28.8">,</tspan><tspan class="cls-16" x="-26.83" y="43.2">r</tspan><tspan class="cls-11" x="-22.54" y="43.2">o</tspan><tspan x="-16.04" y="43.2">adtripped </tspan><tspan class="cls-11" x="36.35" y="43.2">t</tspan><tspan x="40.96" y="43.2">o utah</tspan></tspan></text><text class="cls-3" transform="translate(94.59 574.75)"><tspan class="cls-4">jan - aug 20<tspan class="cls-6" x="62.32" y="0">1</tspan><tspan x="67.16" y="0">7</tspan></tspan><tspan class="cls-15"><tspan class="cls-11" x="-38.28" y="14.4">w</tspan><tspan x="-29.29" y="14.4">or</tspan><tspan class="cls-18" x="-18.41" y="14.4">k</tspan><tspan class="cls-19" x="-12.79" y="14.4">ed at t</tspan><tspan class="cls-9" x="20.05" y="14.4">r</tspan><tspan x="24.31" y="14.4">ader joes,</tspan><tspan x="-53.53" y="28.8">i</tspan><tspan class="cls-23" x="-50.65" y="28.8">n</tspan><tspan class="cls-20" x="-44.1" y="28.8">t</tspan><tspan x="-39.49" y="28.8">e</tspan><tspan class="cls-26" x="-33.68" y="28.8">r</tspan><tspan x="-29.39" y="28.8">ended</tspan><tspan class="cls-27" x="1.93" y="28.8"> </tspan><tspan x="4.33" y="28.8">with national </tspan><tspan class="cls-11" x="16.6" y="43.2">g</tspan><tspan x="22.69" y="43.2">eog</tspan><tspan class="cls-9" x="41.21" y="43.2">r</tspan><tspan x="45.47" y="43.2">aphic</tspan></tspan></text><text class="cls-3" transform="translate(90.49 799.52)"><tspan class="cls-4">jan - may 2018</tspan><tspan class="cls-15"><tspan x="-38.42" y="14.4">i</tspan><tspan class="cls-23" x="-35.54" y="14.4">n</tspan><tspan class="cls-20" x="-28.99" y="14.4">t</tspan><tspan x="-24.38" y="14.4">end </tspan><tspan class="cls-11" x="-2.82" y="14.4">t</tspan><tspan x="1.79" y="14.4">o </tspan><tspan class="cls-11" x="10.92" y="14.4">s</tspan><tspan class="cls-22" x="15.88" y="14.4">t</tspan><tspan x="20.52" y="14.4">udy UI, UX,</tspan><tspan x="-34.2" y="28.8">and </tspan><tspan class="cls-22" x="-12.43" y="28.8">c</tspan><tspan x="-7.11" y="28.8">ompu</tspan><tspan class="cls-11" x="22.85" y="28.8">t</tspan><tspan x="27.46" y="28.8">er </tspan><tspan class="cls-16" x="40.17" y="28.8">s</tspan><tspan x="45.15" y="28.8">cien</tspan><tspan class="cls-21" x="65.84" y="28.8">c</tspan><tspan x="71.17" y="28.8">e</tspan><tspan x="-56.6" y="43.2">g</tspan><tspan class="cls-9" x="-50.45" y="43.2">r</tspan><tspan x="-46.19" y="43.2">adua</tspan><tspan class="cls-11" x="-21.1" y="43.2">t</tspan><tspan x="-16.49" y="43.2">e </tspan><tspan class="cls-11" x="-8.1" y="43.2">f</tspan><tspan class="cls-16" x="-3.89" y="43.2">r</tspan><tspan x="0.41" y="43.2">om uc ber</tspan><tspan class="cls-18" x="50.98" y="43.2">k</tspan><tspan x="56.59" y="43.2">e</tspan><tspan class="cls-20" x="62.4" y="43.2">l</tspan><tspan x="65.65" y="43.2">ey</tspan></tspan></text><polyline class="cls-1" points="225.43 832.25 215.79 841.89 206.15 832.25"/></svg>